<svg width="1369pt" height="222pt" viewBox="0.00 0.00 1369.28 221.60" xmlns="http://www.w3.org/2000/svg" xmlns:xlink="http://www.w3.org/1999/xlink">
<g id="graph0" class="graph" transform="scale(1 1) rotate(0) translate(4 217.6)">
<title>%0</title>
<polygon fill="#ffffff" stroke="transparent" points="-4,4 -4,-217.6 1365.2849,-217.6 1365.2849,4 -4,4"/>
<!-- N3 -->
<g id="node1" class="node">
<title>N3</title>
<g id="a_node1"><a xlink:href="http://semanticscience.org/resource/SIO_000015" xlink:title="sio:SIO_000015">
<ellipse fill="none" stroke="#000000" cx="520.1424" cy="-106.8" rx="74.1836" ry="18"/>
<text text-anchor="middle" x="520.1424" y="-102.6" font-family="Times,serif" font-size="14.00" fill="#000000">sio:SIO_000015</text>
</a>
</g>
</g>
<!-- N13 -->
<g id="node2" class="node">
<title>N13</title>
<g id="a_node2"><a xlink:href="http://semanticscience.org/resource/SIO_000614" xlink:title="sio:SIO_000614">
<ellipse fill="none" stroke="#000000" cx="867.1424" cy="-18" rx="74.1836" ry="18"/>
<text text-anchor="middle" x="867.1424" y="-13.8" font-family="Times,serif" font-size="14.00" fill="#000000">sio:SIO_000614</text>
</a>
</g>
</g>
<!-- N10 -->
<g id="node3" class="node">
<title>N10</title>
<g id="a_node3"><a xlink:href="http://purl.obolibrary.org/obo/NCIT_C70856" xlink:title="obo:NCIT_C70856">
<ellipse fill="none" stroke="#000000" cx="86.1424" cy="-106.8" rx="86.2851" ry="18"/>
<text text-anchor="middle" x="86.1424" y="-102.6" font-family="Times,serif" font-size="14.00" fill="#000000">obo:NCIT_C70856</text>
</a>
</g>
</g>
<!-- N8 -->
<g id="node4" class="node">
<title>N8</title>
<g id="a_node4"><a xlink:href="http://purl.org/ejp-rd/phenopackets-rdf-schema/v200/example-rdf/birthDateValue_" xlink:title=":birthDateValue_">
<ellipse fill="none" stroke="#000000" cx="391.1424" cy="-195.6" rx="78.1462" ry="18"/>
<text text-anchor="middle" x="391.1424" y="-191.4" font-family="Times,serif" font-size="14.00" fill="#000000">:birthDateValue_</text>
</a>
</g>
</g>
<!-- N8&#45;&gt;N3 -->
<g id="edge6" class="edge">
<title>N8-&gt;N3</title>
<g id="a_edge6"><a xlink:href="http://www.w3.org/1999/02/22-rdf-syntax-ns#type" xlink:title="a">
<path fill="none" stroke="#000000" d="M420.0102,-178.7616C429.7149,-172.897 440.5168,-166.1437 450.1424,-159.6 463.5416,-150.491 477.8994,-139.8292 490.1024,-130.4805"/>
<polygon fill="#000000" stroke="#000000" points="492.3917,-133.1349 498.1682,-124.2533 488.1138,-127.5941 492.3917,-133.1349"/>
</a>
</g>
<g id="a_edge6-label"><a xlink:href="http://www.w3.org/1999/02/22-rdf-syntax-ns#type" xlink:title="a">
<text text-anchor="middle" x="477.2497" y="-147" font-family="Times,serif" font-size="14.00" fill="#000000">a</text>
</a>
</g>
</g>
<!-- N8&#45;&gt;N10 -->
<g id="edge7" class="edge">
<title>N8-&gt;N10</title>
<g id="a_edge7"><a xlink:href="http://www.w3.org/1999/02/22-rdf-syntax-ns#type" xlink:title="a">
<path fill="none" stroke="#000000" d="M342.477,-181.4312C289.1373,-165.9015 203.5224,-140.9749 146.0839,-124.2518"/>
<polygon fill="#000000" stroke="#000000" points="146.9896,-120.8702 136.4098,-121.4352 145.0328,-127.5912 146.9896,-120.8702"/>
</a>
</g>
<g id="a_edge7-label"><a xlink:href="http://www.w3.org/1999/02/22-rdf-syntax-ns#type" xlink:title="a">
<text text-anchor="middle" x="269.2497" y="-147" font-family="Times,serif" font-size="14.00" fill="#000000">a</text>
</a>
</g>
</g>
<!-- N5 -->
<g id="node6" class="node">
<title>N5</title>
<g id="a_node6"><a xlink:href="http://purl.org/ejp-rd/phenopackets-rdf-schema/v200/example-rdf/birthDate_" xlink:title=":birthDate_">
<ellipse fill="none" stroke="#000000" cx="867.1424" cy="-106.8" rx="55.0323" ry="18"/>
<text text-anchor="middle" x="867.1424" y="-102.6" font-family="Times,serif" font-size="14.00" fill="#000000">:birthDate_</text>
</a>
</g>
</g>
<!-- N8&#45;&gt;N5 -->
<g id="edge8" class="edge">
<title>N8-&gt;N5</title>
<g id="a_edge8"><a xlink:href="http://semanticscience.org/resource/SIO_000628" xlink:title="sio:SIO_000628">
<path fill="none" stroke="#000000" d="M433.6827,-180.2719C449.6678,-174.2157 467.8958,-166.9521 484.1424,-159.6 498.8573,-152.9411 500.8076,-147.1335 516.3668,-142.8 639.3911,-108.536 677.2429,-146.2076 803.1424,-124.8 807.8718,-123.9958 812.7524,-122.9783 817.6106,-121.838"/>
<polygon fill="#000000" stroke="#000000" points="818.6501,-125.1856 827.4954,-119.3536 816.9438,-118.3968 818.6501,-125.1856"/>
</a>
</g>
<g id="a_edge8-label"><a xlink:href="http://semanticscience.org/resource/SIO_000628" xlink:title="sio:SIO_000628">
<text text-anchor="middle" x="563.0302" y="-147" font-family="Times,serif" font-size="14.00" fill="#000000">sio:SIO_000628</text>
</a>
</g>
</g>
<!-- N9 -->
<g id="node10" class="node">
<title>N9</title>
<g id="a_node10"><a xlink:href="http://purl.obolibrary.org/obo/NCIT_C41189" xlink:title="2012-01-01T00:00:00Z^^xsd:dateTime">
<polygon fill="#ffff00" stroke="#ffff00" points="427.6831,-124.8 190.6018,-124.8 190.6018,-88.8 427.6831,-88.8 427.6831,-124.8"/>
<text text-anchor="middle" x="309.1424" y="-102.6" font-family="Times,serif" font-size="14.00" fill="#000000">2012-01-01T00:00:00Z^^xsd:dateTime</text>
</a>
</g>
</g>
<!-- N8&#45;&gt;N9 -->
<g id="edge9" class="edge">
<title>N8-&gt;N9</title>
<g id="a_edge9"><a xlink:href="http://semanticscience.org/resource/SIO_000300" xlink:title="sio:SIO_000300">
<path fill="none" stroke="#000000" d="M374.5485,-177.63C362.6238,-164.7164 346.3683,-147.1129 333.0463,-132.6861"/>
<polygon fill="#000000" stroke="#000000" points="335.3487,-130.0204 325.9931,-125.0481 330.2059,-134.7693 335.3487,-130.0204"/>
</a>
</g>
<g id="a_edge9-label"><a xlink:href="http://semanticscience.org/resource/SIO_000300" xlink:title="sio:SIO_000300">
<text text-anchor="middle" x="404.0302" y="-147" font-family="Times,serif" font-size="14.00" fill="#000000">sio:SIO_000300</text>
</a>
</g>
</g>
<!-- N11 -->
<g id="node5" class="node">
<title>N11</title>
<g id="a_node5"><a xlink:href="http://purl.org/ejp-rd/phenopackets-rdf-schema/v200/example-rdf/birthDateValue_" xlink:title="MALE">
<polygon fill="#ffff00" stroke="#ffff00" points="1204.7999,-36 1149.485,-36 1149.485,0 1204.7999,0 1204.7999,-36"/>
<text text-anchor="middle" x="1177.1424" y="-13.8" font-family="Times,serif" font-size="14.00" fill="#000000">MALE</text>
</a>
</g>
</g>
<!-- N5&#45;&gt;N13 -->
<g id="edge1" class="edge">
<title>N5-&gt;N13</title>
<g id="a_edge1"><a xlink:href="http://www.w3.org/1999/02/22-rdf-syntax-ns#type" xlink:title="a">
<path fill="none" stroke="#000000" d="M867.1424,-88.4006C867.1424,-76.2949 867.1424,-60.2076 867.1424,-46.4674"/>
<polygon fill="#000000" stroke="#000000" points="870.6425,-46.072 867.1424,-36.072 863.6425,-46.0721 870.6425,-46.072"/>
</a>
</g>
<g id="a_edge1-label"><a xlink:href="http://www.w3.org/1999/02/22-rdf-syntax-ns#type" xlink:title="a">
<text text-anchor="middle" x="870.2497" y="-58.2" font-family="Times,serif" font-size="14.00" fill="#000000">a</text>
</a>
</g>
</g>
<!-- N14 -->
<g id="node14" class="node">
<title>N14</title>
<g id="a_node14"><a xlink:href="http://purl.obolibrary.org/obo/NCIT_C68615" xlink:title="obo:NCIT_C68615">
<ellipse fill="none" stroke="#000000" cx="689.1424" cy="-18" rx="86.2851" ry="18"/>
<text text-anchor="middle" x="689.1424" y="-13.8" font-family="Times,serif" font-size="14.00" fill="#000000">obo:NCIT_C68615</text>
</a>
</g>
</g>
<!-- N5&#45;&gt;N14 -->
<g id="edge2" class="edge">
<title>N5-&gt;N14</title>
<g id="a_edge2"><a xlink:href="http://www.w3.org/1999/02/22-rdf-syntax-ns#type" xlink:title="a">
<path fill="none" stroke="#000000" d="M836.9472,-91.7363C808.0587,-77.3245 764.2087,-55.4488 731.7668,-39.2643"/>
<polygon fill="#000000" stroke="#000000" points="733.0292,-35.9827 722.5184,-34.6505 729.9043,-42.2465 733.0292,-35.9827"/>
</a>
</g>
<g id="a_edge2-label"><a xlink:href="http://www.w3.org/1999/02/22-rdf-syntax-ns#type" xlink:title="a">
<text text-anchor="middle" x="797.2497" y="-58.2" font-family="Times,serif" font-size="14.00" fill="#000000">a</text>
</a>
</g>
</g>
<!-- N2 -->
<g id="node7" class="node">
<title>N2</title>
<g id="a_node7"><a xlink:href="http://purl.obolibrary.org/obo/NCIT_C160908" xlink:title="obo:NCIT_C160908">
<ellipse fill="none" stroke="#000000" cx="703.1424" cy="-106.8" rx="90.9418" ry="18"/>
<text text-anchor="middle" x="703.1424" y="-102.6" font-family="Times,serif" font-size="14.00" fill="#000000">obo:NCIT_C160908</text>
</a>
</g>
</g>
<!-- N1 -->
<g id="node8" class="node">
<title>N1</title>
<g id="a_node8"><a xlink:href="http://purl.org/ejp-rd/phenopackets-rdf-schema/v200/example-rdf/sex_" xlink:title=":sex_">
<ellipse fill="none" stroke="#000000" cx="973.1424" cy="-106.8" rx="31.339" ry="18"/>
<text text-anchor="middle" x="973.1424" y="-102.6" font-family="Times,serif" font-size="14.00" fill="#000000">:sex_</text>
</a>
</g>
</g>
<!-- N1&#45;&gt;N13 -->
<g id="edge3" class="edge">
<title>N1-&gt;N13</title>
<g id="a_edge3"><a xlink:href="http://www.w3.org/1999/02/22-rdf-syntax-ns#type" xlink:title="a">
<path fill="none" stroke="#000000" d="M955.161,-91.7363C938.9323,-78.141 914.7749,-57.9035 895.8715,-42.0674"/>
<polygon fill="#000000" stroke="#000000" points="898.0434,-39.321 888.1301,-35.5822 893.5481,-44.6869 898.0434,-39.321"/>
</a>
</g>
<g id="a_edge3-label"><a xlink:href="http://www.w3.org/1999/02/22-rdf-syntax-ns#type" xlink:title="a">
<text text-anchor="middle" x="933.2497" y="-58.2" font-family="Times,serif" font-size="14.00" fill="#000000">a</text>
</a>
</g>
</g>
<!-- N1&#45;&gt;N11 -->
<g id="edge5" class="edge">
<title>N1-&gt;N11</title>
<g id="a_edge5"><a xlink:href="http://www.w3.org/2000/01/rdf-schema#label" xlink:title="rdfs:label">
<path fill="none" stroke="#000000" d="M998.2653,-95.6905C1003.5051,-93.3959 1008.9986,-91.0067 1014.1424,-88.8 1069.9425,-64.8618 1084.8209,-61.0242 1140.1424,-36 1140.236,-35.9577 1140.3297,-35.9153 1140.4235,-35.8728"/>
<polygon fill="#000000" stroke="#000000" points="1141.7455,-39.1179 1149.341,-31.7314 1138.7971,-32.7691 1141.7455,-39.1179"/>
</a>
</g>
<g id="a_edge5-label"><a xlink:href="http://www.w3.org/2000/01/rdf-schema#label" xlink:title="rdfs:label">
<text text-anchor="middle" x="1122.5758" y="-58.2" font-family="Times,serif" font-size="14.00" fill="#000000">rdfs:label</text>
</a>
</g>
</g>
<!-- N12 -->
<g id="node11" class="node">
<title>N12</title>
<g id="a_node11"><a xlink:href="http://purl.obolibrary.org/obo/NCIT_C46112" xlink:title="obo:NCIT_C46112">
<ellipse fill="none" stroke="#000000" cx="1045.1424" cy="-18" rx="86.2851" ry="18"/>
<text text-anchor="middle" x="1045.1424" y="-13.8" font-family="Times,serif" font-size="14.00" fill="#000000">obo:NCIT_C46112</text>
</a>
</g>
</g>
<!-- N1&#45;&gt;N12 -->
<g id="edge4" class="edge">
<title>N1-&gt;N12</title>
<g id="a_edge4"><a xlink:href="http://www.w3.org/1999/02/22-rdf-syntax-ns#type" xlink:title="a">
<path fill="none" stroke="#000000" d="M986.6851,-90.0974C997.2713,-77.0411 1012.1711,-58.6646 1024.2784,-43.7323"/>
<polygon fill="#000000" stroke="#000000" points="1027.0929,-45.8184 1030.6723,-35.8465 1021.6556,-41.4098 1027.0929,-45.8184"/>
</a>
</g>
<g id="a_edge4-label"><a xlink:href="http://www.w3.org/1999/02/22-rdf-syntax-ns#type" xlink:title="a">
<text text-anchor="middle" x="1019.2497" y="-58.2" font-family="Times,serif" font-size="14.00" fill="#000000">a</text>
</a>
</g>
</g>
<!-- N6 -->
<g id="node9" class="node">
<title>N6</title>
<g id="a_node9"><a xlink:href="http://purl.obolibrary.org/obo/NCIT_C41189" xlink:title="obo:NCIT_C41189">
<ellipse fill="none" stroke="#000000" cx="1275.1424" cy="-106.8" rx="86.2851" ry="18"/>
<text text-anchor="middle" x="1275.1424" y="-102.6" font-family="Times,serif" font-size="14.00" fill="#000000">obo:NCIT_C41189</text>
</a>
</g>
</g>
<!-- N7 -->
<g id="node12" class="node">
<title>N7</title>
<g id="a_node12"><a xlink:href="http://semanticscience.org/resource/SIO_010375" xlink:title="sio:SIO_010375">
<ellipse fill="none" stroke="#000000" cx="1097.1424" cy="-106.8" rx="74.1836" ry="18"/>
<text text-anchor="middle" x="1097.1424" y="-102.6" font-family="Times,serif" font-size="14.00" fill="#000000">sio:SIO_010375</text>
</a>
</g>
</g>
<!-- N0 -->
<g id="node13" class="node">
<title>N0</title>
<g id="a_node13"><a xlink:href="http://purl.org/ejp-rd/phenopackets-rdf-schema/v200/example-rdf/sexValue_" xlink:title=":sexValue_">
<ellipse fill="none" stroke="#000000" cx="703.1424" cy="-195.6" rx="54.4527" ry="18"/>
<text text-anchor="middle" x="703.1424" y="-191.4" font-family="Times,serif" font-size="14.00" fill="#000000">:sexValue_</text>
</a>
</g>
</g>
<!-- N0&#45;&gt;N3 -->
<g id="edge14" class="edge">
<title>N0-&gt;N3</title>
<g id="a_edge14"><a xlink:href="http://www.w3.org/1999/02/22-rdf-syntax-ns#type" xlink:title="a">
<path fill="none" stroke="#000000" d="M677.8233,-179.5058C659.8737,-168.4473 635.0107,-153.8288 612.1424,-142.8 599.3381,-136.6248 585.1813,-130.6746 571.8899,-125.451"/>
<polygon fill="#000000" stroke="#000000" points="572.9859,-122.1223 562.3964,-121.783 570.463,-128.6519 572.9859,-122.1223"/>
</a>
</g>
<g id="a_edge14-label"><a xlink:href="http://www.w3.org/1999/02/22-rdf-syntax-ns#type" xlink:title="a">
<text text-anchor="middle" x="646.2497" y="-147" font-family="Times,serif" font-size="14.00" fill="#000000">a</text>
</a>
</g>
</g>
<!-- N0&#45;&gt;N2 -->
<g id="edge15" class="edge">
<title>N0-&gt;N2</title>
<g id="a_edge15"><a xlink:href="http://www.w3.org/1999/02/22-rdf-syntax-ns#type" xlink:title="a">
<path fill="none" stroke="#000000" d="M703.1424,-177.2006C703.1424,-165.0949 703.1424,-149.0076 703.1424,-135.2674"/>
<polygon fill="#000000" stroke="#000000" points="706.6425,-134.872 703.1424,-124.872 699.6425,-134.8721 706.6425,-134.872"/>
</a>
</g>
<g id="a_edge15-label"><a xlink:href="http://www.w3.org/1999/02/22-rdf-syntax-ns#type" xlink:title="a">
<text text-anchor="middle" x="706.2497" y="-147" font-family="Times,serif" font-size="14.00" fill="#000000">a</text>
</a>
</g>
</g>
<!-- N0&#45;&gt;N1 -->
<g id="edge16" class="edge">
<title>N0-&gt;N1</title>
<g id="a_edge16"><a xlink:href="http://semanticscience.org/resource/SIO_000628" xlink:title="sio:SIO_000628">
<path fill="none" stroke="#000000" d="M720.5465,-178.2833C733.8395,-166.1855 753.2453,-150.8169 773.3668,-142.8 838.9318,-116.6773 862.9235,-142.8925 931.1424,-124.8 933.946,-124.0564 936.8055,-123.1581 939.6478,-122.1644"/>
<polygon fill="#000000" stroke="#000000" points="941.0674,-125.3682 949.1384,-118.5046 938.5487,-118.837 941.0674,-125.3682"/>
</a>
</g>
<g id="a_edge16-label"><a xlink:href="http://semanticscience.org/resource/SIO_000628" xlink:title="sio:SIO_000628">
<text text-anchor="middle" x="820.0302" y="-147" font-family="Times,serif" font-size="14.00" fill="#000000">sio:SIO_000628</text>
</a>
</g>
</g>
<!-- N4 -->
<g id="node15" class="node">
<title>N4</title>
<g id="a_node15"><a xlink:href="http://purl.org/ejp-rd/phenopackets-rdf-schema/v200/example-rdf/individual_" xlink:title=":individual_">
<ellipse fill="none" stroke="#000000" cx="1039.1424" cy="-195.6" rx="57.9256" ry="18"/>
<text text-anchor="middle" x="1039.1424" y="-191.4" font-family="Times,serif" font-size="14.00" fill="#000000">:individual_</text>
</a>
</g>
</g>
<!-- N4&#45;&gt;N5 -->
<g id="edge13" class="edge">
<title>N4-&gt;N5</title>
<g id="a_edge13"><a xlink:href="http://semanticscience.org/resource/SIO_000008" xlink:title="sio:SIO_000008">
<path fill="none" stroke="#000000" d="M984.1522,-189.8232C943.2654,-184.3795 892.1124,-174.7596 877.3668,-159.6 871.0499,-153.1057 868.0527,-143.9491 866.7662,-135.0813"/>
<polygon fill="#000000" stroke="#000000" points="870.2439,-134.6644 865.9454,-124.9808 863.2669,-135.2315 870.2439,-134.6644"/>
</a>
</g>
<g id="a_edge13-label"><a xlink:href="http://semanticscience.org/resource/SIO_000008" xlink:title="sio:SIO_000008">
<text text-anchor="middle" x="924.0302" y="-147" font-family="Times,serif" font-size="14.00" fill="#000000">sio:SIO_000008</text>
</a>
</g>
</g>
<!-- N4&#45;&gt;N1 -->
<g id="edge12" class="edge">
<title>N4-&gt;N1</title>
<g id="a_edge12"><a xlink:href="http://semanticscience.org/resource/SIO_000008" xlink:title="sio:SIO_000008">
<path fill="none" stroke="#000000" d="M1003.4807,-181.1939C994.2185,-175.771 985.2126,-168.6595 979.3668,-159.6 974.7925,-152.5108 972.6912,-143.7527 971.8801,-135.4212"/>
<polygon fill="#000000" stroke="#000000" points="975.3697,-135.0985 971.4537,-125.2539 968.3759,-135.3918 975.3697,-135.0985"/>
</a>
</g>
<g id="a_edge12-label"><a xlink:href="http://semanticscience.org/resource/SIO_000008" xlink:title="sio:SIO_000008">
<text text-anchor="middle" x="1026.0302" y="-147" font-family="Times,serif" font-size="14.00" fill="#000000">sio:SIO_000008</text>
</a>
</g>
</g>
<!-- N4&#45;&gt;N6 -->
<g id="edge11" class="edge">
<title>N4-&gt;N6</title>
<g id="a_edge11"><a xlink:href="http://www.w3.org/1999/02/22-rdf-syntax-ns#type" xlink:title="a">
<path fill="none" stroke="#000000" d="M1076.0174,-181.725C1115.6322,-166.8191 1178.8903,-143.0169 1223.4584,-126.2472"/>
<polygon fill="#000000" stroke="#000000" points="1224.8236,-129.4732 1232.9504,-122.6757 1222.3584,-122.9216 1224.8236,-129.4732"/>
</a>
</g>
<g id="a_edge11-label"><a xlink:href="http://www.w3.org/1999/02/22-rdf-syntax-ns#type" xlink:title="a">
<text text-anchor="middle" x="1181.2497" y="-147" font-family="Times,serif" font-size="14.00" fill="#000000">a</text>
</a>
</g>
</g>
<!-- N4&#45;&gt;N7 -->
<g id="edge10" class="edge">
<title>N4-&gt;N7</title>
<g id="a_edge10"><a xlink:href="http://www.w3.org/1999/02/22-rdf-syntax-ns#type" xlink:title="a">
<path fill="none" stroke="#000000" d="M1058.965,-178.5252C1064.6956,-172.9063 1070.6176,-166.3566 1075.1424,-159.6 1080.3056,-151.8903 1084.6305,-142.7746 1088.0413,-134.3064"/>
<polygon fill="#000000" stroke="#000000" points="1091.3776,-135.3779 1091.6208,-124.7858 1084.8254,-132.9144 1091.3776,-135.3779"/>
</a>
</g>
<g id="a_edge10-label"><a xlink:href="http://www.w3.org/1999/02/22-rdf-syntax-ns#type" xlink:title="a">
<text text-anchor="middle" x="1087.2497" y="-147" font-family="Times,serif" font-size="14.00" fill="#000000">a</text>
</a>
</g>
</g>
</g>
</svg>